<?xml version="1.0" standalone="no"?>
<!DOCTYPE svg PUBLIC "-//W3C//DTD SVG 20010904//EN"
 "http://www.w3.org/TR/2001/REC-SVG-20010904/DTD/svg10.dtd">
<svg version="1.0" xmlns="http://www.w3.org/2000/svg"
 width="700.000000pt" height="700.000000pt" viewBox="0 0 700.000000 700.000000"
 preserveAspectRatio="xMidYMid meet">
<metadata>
Created by potrace 1.11, written by Peter Selinger 2001-2013
</metadata>
<g transform="translate(0.000000,700.000000) scale(0.100000,-0.100000)"
fill="#000000" stroke="none">
<path d="M3299 6996 c-2 -2 -42 -7 -89 -10 -47 -4 -96 -8 -110 -10 -14 -2 -50
-7 -80 -11 -30 -4 -62 -8 -70 -10 -8 -1 -33 -6 -55 -9 -55 -9 -227 -46 -235
-51 -3 -2 -18 -6 -33 -9 -14 -2 -66 -17 -114 -31 -495 -150 -929 -389 -1317
-725 -116 -100 -219 -206 -400 -410 -45 -50 -160 -208 -231 -315 -131 -200
-254 -439 -329 -640 -21 -55 -41 -109 -46 -120 -66 -154 -153 -563 -177 -825
-15 -162 -8 -607 11 -720 3 -14 7 -43 10 -65 67 -510 275 -1049 575 -1485 51
-74 168 -231 206 -275 419 -491 912 -840 1490 -1057 71 -27 285 -94 325 -103
8 -1 35 -8 60 -15 54 -14 49 -13 175 -38 88 -18 122 -23 235 -37 214 -27 679
-27 830 -1 14 3 45 7 70 10 25 3 55 8 66 10 12 2 38 7 58 10 19 3 57 11 83 17
27 6 62 13 78 16 17 3 98 24 180 48 296 85 617 228 875 389 118 74 311 213
382 274 183 157 366 343 495 502 58 73 233 316 233 325 0 2 13 23 29 47 64 96
172 307 240 465 90 213 168 460 207 658 2 11 6 31 9 45 12 59 25 138 30 180 3
25 7 61 10 80 15 115 20 208 20 400 0 185 -10 414 -20 430 -1 3 -6 34 -9 69
-4 36 -8 67 -10 70 -2 3 -7 26 -10 52 -20 148 -122 521 -180 653 -7 17 -28 67
-47 111 -139 338 -390 724 -649 999 -96 102 -163 168 -238 233 -36 32 -73 65
-82 73 -40 38 -228 176 -336 247 -363 237 -799 416 -1201 492 -158 30 -161 31
-248 41 -44 6 -98 13 -120 16 -43 6 -541 15 -546 10z m-564 -579 c-287 -296
-514 -605 -686 -934 l-64 -123 -472 0 c-260 0 -473 3 -473 6 0 9 71 95 161
194 409 455 937 775 1539 934 30 8 62 15 70 15 9 1 -25 -41 -75 -92z m1647 47
c361 -104 721 -290 1023 -527 120 -95 151 -122 280 -252 129 -130 186 -193
274 -307 13 -17 -10 -18 -451 -18 l-464 0 -53 101 c-77 148 -260 439 -338 539
-138 177 -242 296 -377 432 -90 92 -97 90 106 32z m-1072 -594 l0 -510 -430 0
-429 0 21 38 c112 194 307 460 463 630 120 131 352 352 370 352 3 0 5 -229 5
-510z m646 295 c172 -171 286 -303 405 -470 66 -91 195 -292 205 -320 5 -13
-44 -15 -420 -15 l-426 0 0 53 c-1 68 -1 778 0 885 l0 83 33 -23 c17 -12 109
-99 203 -193z m-2339 -1214 l193 -1 -20 -51 c-45 -112 -136 -459 -164 -619 -2
-14 -7 -36 -10 -50 -3 -14 -8 -43 -11 -65 -3 -22 -7 -53 -10 -70 -15 -97 -30
-248 -34 -342 l-1 -33 -571 0 -572 0 7 78 c28 344 135 722 302 1069 l39 82
205 3 c113 2 261 2 330 1 69 -1 212 -2 317 -2z m1693 -616 l0 -615 -671 0
-671 0 6 78 c4 42 8 93 11 112 2 19 6 51 9 70 7 51 28 192 31 210 2 8 11 49
20 90 9 41 18 86 21 100 18 95 121 417 166 523 l20 47 529 0 529 0 0 -615z
m1490 558 c56 -145 133 -384 155 -483 56 -251 82 -417 100 -632 l5 -58 -670 0
-670 0 0 73 c-1 95 -1 992 0 1085 l0 72 529 0 528 0 23 -57z m1444 34 c24 -35
122 -255 151 -337 70 -197 116 -364 149 -545 2 -11 7 -45 11 -75 4 -30 9 -62
10 -71 2 -9 7 -53 11 -98 l7 -81 -557 0 c-438 0 -556 3 -557 13 -1 6 -2 23 -3
37 -2 14 -6 63 -10 110 -4 47 -8 96 -10 110 -2 14 -6 50 -10 80 -7 52 -20 133
-31 190 -3 14 -8 41 -11 60 -23 133 -120 483 -169 613 -7 16 21 17 499 17
l506 0 14 -23z m-4687 -1629 c2 -44 15 -217 18 -238 2 -14 7 -50 10 -80 4 -30
9 -68 11 -85 3 -16 7 -41 9 -55 21 -161 106 -510 171 -700 3 -8 5 -16 4 -18 0
-1 6 -15 15 -32 8 -16 15 -31 15 -35 0 -3 -233 -5 -518 -5 l-517 0 -53 109
c-138 288 -240 617 -277 894 -4 27 -8 57 -10 66 -2 9 -6 56 -10 104 l-7 87
569 0 c449 0 570 -3 570 -12z m1753 -618 l0 -630 -529 0 -529 0 -21 51 c-65
149 -154 454 -200 684 -20 98 -24 126 -36 235 -3 30 -8 64 -10 75 -2 11 -7 64
-11 118 l-6 97 671 0 671 0 0 -630z m1745 558 c-3 -40 -8 -95 -10 -123 -5 -45
-7 -66 -20 -155 -2 -14 -7 -45 -10 -70 -3 -25 -8 -52 -10 -60 -2 -8 -7 -31
-10 -50 -3 -19 -13 -64 -21 -100 -9 -36 -17 -72 -19 -80 -27 -126 -97 -345
-158 -497 l-21 -53 -528 0 -528 0 0 33 c-1 46 -1 1112 0 1175 l0 52 671 0 670
0 -6 -72z m1521 -3 c-10 -111 -23 -206 -52 -360 -35 -192 -131 -476 -237 -697
l-60 -128 -505 0 c-409 0 -503 2 -499 13 27 70 84 255 111 361 37 141 37 140
61 261 11 58 25 135 30 170 3 22 8 54 10 70 8 47 14 102 21 195 4 47 8 92 10
100 1 8 3 32 3 53 l1 37 556 0 557 0 -7 -75z m-2011 -1597 c10 -10 -147 -258
-249 -393 -51 -68 -139 -177 -181 -224 -124 -140 -390 -396 -412 -396 -6 0 -6
1002 0 1013 6 8 833 9 842 0z m1387 0 c6 -13 -143 -188 -257 -304 -124 -125
-214 -205 -325 -290 -36 -27 -67 -51 -70 -54 -11 -12 -209 -139 -280 -180
-201 -117 -588 -274 -751 -305 -11 -2 -29 -7 -40 -10 -10 -4 -19 -4 -19 -1 0
3 37 43 81 88 45 46 107 112 138 148 31 35 66 76 79 90 36 38 212 275 269 360
68 102 174 283 219 372 20 40 40 78 44 83 9 11 908 14 912 3z m-3912 -105
c168 -326 421 -671 701 -956 81 -82 85 -88 56 -82 -108 21 -358 103 -465 151
-29 13 -55 24 -58 24 -15 0 -254 123 -349 180 -156 94 -377 255 -465 339 -9 9
-48 46 -86 82 -124 118 -324 342 -324 363 0 3 210 6 468 6 l467 0 55 -107z
m1270 -403 c0 -280 -3 -510 -6 -510 -9 0 -155 133 -254 232 -69 69 -170 182
-282 316 -76 91 -308 439 -308 462 0 6 157 10 425 10 l425 0 0 -510z"/>
</g>
</svg>
