<svg width="35" height="35" viewBox="0 0 35 35" fill="none" xmlns="http://www.w3.org/2000/svg">
<path d="M17.5887 0.000273438C17.5874 0.000273438 17.5863 0.000273438 17.585 0.000205078C17.5794 0.000205078 17.5739 0 17.5684 0C17.5675 0 17.5667 0 17.5659 0C17.5637 0 17.5615 6.83594e-05 17.5593 6.83594e-05C7.91506 0.00499023 0 7.8102 0 17.4316C0 19.7843 0.468603 22.0754 1.39289 24.2415C3.18233 28.4352 6.55587 31.8138 10.7585 33.607C12.9242 34.5312 15.2151 34.9999 17.5674 34.9999C17.568 34.9999 17.5686 35.0001 17.5692 35.0001C17.5708 35.0001 17.5725 34.9999 17.574 34.9999C27.2504 34.9968 35 27.0242 35 17.4316C35 7.8117 27.2236 0.0111426 17.5887 0.000273438ZM14.1721 2.42286C12.4234 4.08071 10.9946 6.02239 9.91867 8.20312H5.16216C7.34357 5.3293 10.5162 3.23511 14.1721 2.42286ZM3.84768 10.2402H9.04237C8.32508 12.2054 7.90098 14.2999 7.79153 16.4062H2.08612C2.23357 14.1963 2.85394 12.0991 3.84768 10.2402ZM3.8863 24.7461C2.86843 22.8498 2.23385 20.7188 2.08558 18.457H7.78456C7.88245 20.6101 8.3097 22.7384 9.04251 24.7461H3.8863ZM5.20413 26.7969H9.91867C10.9925 28.9736 12.4193 30.9146 14.1675 32.5728C10.5367 31.7578 7.38329 29.6668 5.20413 26.7969ZM9.83835 18.457H16.5429V24.7461H11.2537C10.4349 22.7734 9.94834 20.6501 9.83835 18.457ZM16.543 31.9317C14.7996 30.4801 13.3541 28.7369 12.2548 26.7969H16.543V31.9317H16.543ZM16.543 16.4062H9.84525C9.96823 14.2616 10.452 12.1856 11.2539 10.2539H16.543V16.4062ZM16.543 8.20312H12.2549C13.3541 6.26309 14.7997 4.51992 16.543 3.06824V8.20312ZM31.1681 10.2539C32.1532 12.1128 32.768 14.1963 32.9142 16.4062H27.3451C27.2357 14.2999 26.8116 12.219 26.0943 10.2539H31.1681ZM29.8653 8.20312H25.2181C24.1451 6.02813 22.7199 4.08864 20.9738 2.43134C24.581 3.24987 27.7108 5.33955 29.8653 8.20312ZM18.5938 3.06865C20.3372 4.52033 21.7833 6.26309 22.8825 8.20312H18.5938V3.06865ZM18.5938 10.2539H23.8842C24.6859 12.1855 25.1686 14.2617 25.2916 16.4062H18.5938V10.2539ZM25.299 18.4434C25.1891 20.6363 24.703 22.7735 23.8842 24.7461H18.5938V18.4434H25.299ZM18.5938 31.9313V26.7832H22.8825C21.7833 28.7232 20.3372 30.4796 18.5938 31.9313ZM20.9785 32.5642C22.721 30.9092 24.1453 28.9578 25.218 26.7832H29.8236C27.6716 29.6427 24.5608 31.7429 20.9785 32.5642ZM26.0943 24.7461C26.8272 22.7384 27.2544 20.5964 27.3523 18.4434H32.9148C32.7679 20.7052 32.1389 22.8498 31.13 24.7461H26.0943Z" fill="url(#paint0_linear)"/>
<defs>
<linearGradient id="paint0_linear" x1="17.5" y1="0" x2="17.5" y2="35.0001" gradientUnits="userSpaceOnUse">
<stop stop-color="#F27A54"/>
<stop offset="1" stop-color="#A154F2"/>
</linearGradient>
</defs>
</svg>
