<svg width="11" height="10" viewBox="0 0 11 10" fill="none" xmlns="http://www.w3.org/2000/svg">
<path d="M5.875 4.99013L9.96324 0.901875C10.1072 0.757939 10.1072 0.524575 9.96324 0.380657C9.8193 0.236739 9.58594 0.236721 9.44202 0.380657L5.35376 4.46891L1.26552 0.380657C1.12159 0.236721 0.888222 0.236721 0.744305 0.380657C0.600387 0.524593 0.600369 0.757957 0.744305 0.901875L4.83254 4.99011L0.744305 9.07837C0.600369 9.22231 0.600369 9.45567 0.744305 9.59959C0.816263 9.67155 0.910593 9.70752 1.00492 9.70752C1.09925 9.70752 1.19356 9.67155 1.26554 9.59959L5.35376 5.51135L9.442 9.59959C9.51396 9.67155 9.60829 9.70752 9.70262 9.70752C9.79695 9.70752 9.89126 9.67155 9.96324 9.59959C10.1072 9.45565 10.1072 9.22229 9.96324 9.07837L5.875 4.99013Z" fill="#888888"/>
</svg>
