<svg width="59" height="57" viewBox="0 0 59 57" fill="none" xmlns="http://www.w3.org/2000/svg">
<path d="M29.5 -2.8361e-05C13.2012 -2.8361e-05 -2.25529e-06 13.085 -2.25529e-06 29.2232C-2.25529e-06 42.1372 8.45175 53.0885 20.1706 56.9496C21.6456 57.2246 22.1865 56.3201 22.1865 55.5444C22.1865 54.8505 22.1619 53.0117 22.1496 50.5756C13.9437 52.3376 12.213 46.655 12.213 46.655C10.8707 43.2822 8.93112 42.3801 8.93112 42.3801C6.25891 40.5685 9.13762 40.6057 9.13762 40.6057C12.0999 40.8089 13.656 43.6167 13.656 43.6167C16.2865 48.0849 20.5615 46.7938 22.2479 46.0478C22.5134 44.157 23.273 42.8708 24.1162 42.1397C17.5648 41.4086 10.679 38.8957 10.679 27.6991C10.679 24.5096 11.8221 21.9025 13.715 19.858C13.3832 19.1195 12.3875 16.1481 13.9732 12.1234C13.9732 12.1234 16.4438 11.3403 22.0857 15.1196C24.4457 14.4703 26.9532 14.1482 29.4607 14.1333C31.9682 14.1482 34.4757 14.4703 36.8357 15.1196C42.4407 11.3403 44.9113 12.1234 44.9113 12.1234C46.4969 16.1481 45.5013 19.1195 45.2063 19.858C47.0869 21.9025 48.23 24.5096 48.23 27.6991C48.23 38.9254 41.3344 41.3962 34.7707 42.1149C35.8032 42.9922 36.7619 44.784 36.7619 47.5224C36.7619 51.433 36.725 54.5754 36.725 55.5246C36.725 56.2904 37.2413 57.2048 38.7532 56.9124C50.5556 53.0761 59 42.1174 59 29.2232C59 13.085 45.7914 -2.8361e-05 29.5 -2.8361e-05Z" fill="url(#paint0_linear)"/>
<defs>
<linearGradient id="paint0_linear" x1="31.8271" y1="16.3439" x2="31.8271" y2="73.3438" gradientUnits="userSpaceOnUse">
<stop stop-color="#F27A54"/>
<stop offset="1" stop-color="#A154F2"/>
</linearGradient>
</defs>
</svg>
